<svg xmlns="http://www.w3.org/2000/svg" viewBox="0 0 128 128" role="img" aria-label="Cipher Lab icon">
  <defs>
    <linearGradient id="bg" x1="0" y1="0" x2="1" y2="1">
      <stop offset="0%" stop-color="#1f2937" />
      <stop offset="100%" stop-color="#0f172a" />
    </linearGradient>
    <linearGradient id="accent" x1="0" y1="0" x2="1" y2="1">
      <stop offset="0%" stop-color="#60a5fa" />
      <stop offset="100%" stop-color="#22d3ee" />
    </linearGradient>
  </defs>

  <rect x="8" y="8" width="112" height="112" rx="24" fill="url(#bg)" />

  <circle cx="64" cy="64" r="34" fill="none" stroke="url(#accent)" stroke-width="8" />
  <circle cx="64" cy="64" r="8" fill="#e2e8f0" />

  <g stroke="#93c5fd" stroke-width="6" stroke-linecap="round">
    <line x1="64" y1="24" x2="64" y2="34" />
    <line x1="64" y1="94" x2="64" y2="104" />
    <line x1="24" y1="64" x2="34" y2="64" />
    <line x1="94" y1="64" x2="104" y2="64" />
    <line x1="36" y1="36" x2="43" y2="43" />
    <line x1="85" y1="85" x2="92" y2="92" />
    <line x1="92" y1="36" x2="85" y2="43" />
    <line x1="43" y1="85" x2="36" y2="92" />
  </g>

  <path
    d="M76 58a12 12 0 1 0-24 0v2h-6a4 4 0 0 0-4 4v24a4 4 0 0 0 4 4h36a4 4 0 0 0 4-4V64a4 4 0 0 0-4-4h-6zm-16 0a4 4 0 0 1 8 0v2h-8v-2z"
    fill="#f8fafc"
    opacity="0.92"
  />
</svg>
